<svg xmlns="http://www.w3.org/2000/svg" width="1920" height="1080"><path d="M385,1319L174,1326L549,1320Z" fill="#7b95a8" stroke="#7b95a8" stroke-width="1.51"/><path d="M32,-248L167,-247L737,-255Z" fill="#e1f3da" stroke="#e1f3da" stroke-width="1.51"/><path d="M913,1288L549,1320L999,1289Z" fill="#5d8da7" stroke="#5d8da7" stroke-width="1.51"/><path d="M737,-255L875,-218L1237,-196Z" fill="#b9e3d6" stroke="#b9e3d6" stroke-width="1.51"/><path d="M999,1289L549,1320L1361,1323Z" fill="#4e88a9" stroke="#4e88a9" stroke-width="1.51"/><path d="M737,-255L1237,-196L1629,-223Z" fill="#acd8dd" stroke="#acd8dd" stroke-width="1.51"/><path d="M737,-255L1629,-223L1931,-232Z" fill="#a2cad9" stroke="#a2cad9" stroke-width="1.51"/><path d="M1629,-223L1841,-213L1931,-232Z" fill="#94b1ce" stroke="#94b1ce" stroke-width="1.51"/><path d="M1750,1310L1361,1323L1945,1342Z" fill="#17629f" stroke="#17629f" stroke-width="1.51"/><path d="M1981,1162L2036,1318L2071,1088Z" fill="#0a599c" stroke="#0a599c" stroke-width="1.51"/><path d="M1892,737L2066,857L2118,657Z" fill="#3380b3" stroke="#3380b3" stroke-width="1.51"/><path d="M2066,857L2069,1005L2118,657Z" fill="#2b74aa" stroke="#2b74aa" stroke-width="1.51"/><path d="M2069,1005L2071,1088L2118,657Z" fill="#226ea6" stroke="#226ea6" stroke-width="1.51"/><path d="M1946,333L2069,531L2132,383Z" fill="#608fa7" stroke="#608fa7" stroke-width="1.51"/><path d="M2040,200L1946,333L2132,383Z" fill="#6d94a6" stroke="#6d94a6" stroke-width="1.51"/><path d="M2069,531L2118,657L2132,383Z" fill="#5187a6" stroke="#5187a6" stroke-width="1.51"/><path d="M2111,-196L1941,-78L2134,-39Z" fill="#879cb7" stroke="#879cb7" stroke-width="1.51"/><path d="M1941,-78L2048,74L2134,-39Z" fill="#839cb4" stroke="#839cb4" stroke-width="1.51"/><path d="M2040,200L2132,383L2134,-39Z" fill="#7793a6" stroke="#7793a6" stroke-width="1.51"/><path d="M2048,74L2040,200L2134,-39Z" fill="#7e97ad" stroke="#7e97ad" stroke-width="1.51"/><path d="M2069,531L1915,561L2118,657Z" fill="#4b89ad" stroke="#4b89ad" stroke-width="1.51"/><path d="M1915,561L1892,737L2118,657Z" fill="#4389b4" stroke="#4389b4" stroke-width="1.51"/><path d="M167,-247L536,-230L737,-255Z" fill="#d8f0d5" stroke="#d8f0d5" stroke-width="1.51"/><path d="M2066,857L1973,881L2069,1005Z" fill="#2371aa" stroke="#2371aa" stroke-width="1.51"/><path d="M1973,881L1965,971L2069,1005Z" fill="#1e70aa" stroke="#1e70aa" stroke-width="1.51"/><path d="M1931,-232L1941,-78L2111,-196Z" fill="#8ca2be" stroke="#8ca2be" stroke-width="1.51"/><path d="M1943,130L2040,200L2048,74Z" fill="#7d9cae" stroke="#7d9cae" stroke-width="1.51"/><path d="M1892,737L1973,881L2066,857Z" fill="#2d7db3" stroke="#2d7db3" stroke-width="1.51"/><path d="M1946,333L1915,561L2069,531Z" fill="#5b92ae" stroke="#5b92ae" stroke-width="1.51"/><path d="M2069,1005L1965,971L2071,1088Z" fill="#1968a5" stroke="#1968a5" stroke-width="1.51"/><path d="M1965,971L1981,1162L2071,1088Z" fill="#1465a5" stroke="#1465a5" stroke-width="1.51"/><path d="M1981,1162L1945,1342L2036,1318Z" fill="#0a5496" stroke="#0a5496" stroke-width="1.51"/><path d="M1897,278L1946,333L2040,200Z" fill="#729aad" stroke="#729aad" stroke-width="1.51"/><path d="M1941,-78L1943,130L2048,74Z" fill="#829fb6" stroke="#829fb6" stroke-width="1.51"/><path d="M1943,130L1897,278L2040,200Z" fill="#789daf" stroke="#789daf" stroke-width="1.51"/><path d="M1931,-232L1841,-213L1941,-78Z" fill="#8fa9c6" stroke="#8fa9c6" stroke-width="1.51"/><path d="M1941,-78L1826,57L1943,130Z" fill="#85a5bc" stroke="#85a5bc" stroke-width="1.51"/><path d="M1786,345L1915,561L1946,333Z" fill="#659bb3" stroke="#659bb3" stroke-width="1.51"/><path d="M1826,973L1841,1138L1965,971Z" fill="#1872b0" stroke="#1872b0" stroke-width="1.51"/><path d="M1826,973L1965,971L1973,881Z" fill="#1f77b1" stroke="#1f77b1" stroke-width="1.51"/><path d="M1965,971L1841,1138L1981,1162Z" fill="#1269aa" stroke="#1269aa" stroke-width="1.51"/><path d="M1841,1138L1945,1342L1981,1162Z" fill="#095ea1" stroke="#095ea1" stroke-width="1.51"/><path d="M1841,1138L1750,1310L1945,1342Z" fill="#0b5ea1" stroke="#0b5ea1" stroke-width="1.51"/><path d="M1892,737L1759,786L1973,881Z" fill="#2f86bc" stroke="#2f86bc" stroke-width="1.51"/><path d="M1759,786L1826,973L1973,881Z" fill="#2881b9" stroke="#2881b9" stroke-width="1.51"/><path d="M1781,702L1892,737L1915,561Z" fill="#4291bd" stroke="#4291bd" stroke-width="1.51"/><path d="M1786,345L1728,560L1915,561Z" fill="#5c9db8" stroke="#5c9db8" stroke-width="1.51"/><path d="M1841,-213L1793,-114L1941,-78Z" fill="#8eabc7" stroke="#8eabc7" stroke-width="1.51"/><path d="M1793,-114L1826,57L1941,-78Z" fill="#8aaac3" stroke="#8aaac3" stroke-width="1.51"/><path d="M1778,194L1897,278L1943,130Z" fill="#7ba3b6" stroke="#7ba3b6" stroke-width="1.51"/><path d="M1897,278L1786,345L1946,333Z" fill="#709fb1" stroke="#709fb1" stroke-width="1.51"/><path d="M1826,57L1778,194L1943,130Z" fill="#82a7ba" stroke="#82a7ba" stroke-width="1.51"/><path d="M1237,-196L1533,-188L1629,-223Z" fill="#9ec7d7" stroke="#9ec7d7" stroke-width="1.51"/><path d="M1237,-196L1383,-171L1533,-188Z" fill="#a1cdd8" stroke="#a1cdd8" stroke-width="1.51"/><path d="M1728,560L1781,702L1915,561Z" fill="#4b98bc" stroke="#4b98bc" stroke-width="1.51"/><path d="M1778,194L1786,345L1897,278Z" fill="#76a5b5" stroke="#76a5b5" stroke-width="1.51"/><path d="M1781,702L1759,786L1892,737Z" fill="#3790c1" stroke="#3790c1" stroke-width="1.51"/><path d="M1594,1243L1361,1323L1750,1310Z" fill="#1d6ca7" stroke="#1d6ca7" stroke-width="1.51"/><path d="M1620,422L1728,560L1786,345Z" fill="#65a6ba" stroke="#65a6ba" stroke-width="1.51"/><path d="M1668,70L1778,194L1826,57Z" fill="#86aebe" stroke="#86aebe" stroke-width="1.51"/><path d="M1793,-114L1674,-48L1826,57Z" fill="#8cafc5" stroke="#8cafc5" stroke-width="1.51"/><path d="M1643,967L1671,1164L1826,973Z" fill="#207bb6" stroke="#207bb6" stroke-width="1.51"/><path d="M1759,786L1690,895L1826,973Z" fill="#2b86bc" stroke="#2b86bc" stroke-width="1.51"/><path d="M1826,973L1671,1164L1841,1138Z" fill="#1773b2" stroke="#1773b2" stroke-width="1.51"/><path d="M1671,1164L1750,1310L1841,1138Z" fill="#126aaa" stroke="#126aaa" stroke-width="1.51"/><path d="M1629,-223L1793,-114L1841,-213Z" fill="#94b3cd" stroke="#94b3cd" stroke-width="1.51"/><path d="M1674,-48L1668,70L1826,57Z" fill="#8ab1c3" stroke="#8ab1c3" stroke-width="1.51"/><path d="M1690,895L1643,967L1826,973Z" fill="#2683b9" stroke="#2683b9" stroke-width="1.51"/><path d="M167,-247L284,-231L536,-230Z" fill="#e0f3d9" stroke="#e0f3d9" stroke-width="1.51"/><path d="M1728,560L1593,671L1781,702Z" fill="#4a9cc1" stroke="#4a9cc1" stroke-width="1.51"/><path d="M1778,194L1640,241L1786,345Z" fill="#79abb9" stroke="#79abb9" stroke-width="1.51"/><path d="M1629,-223L1674,-48L1793,-114Z" fill="#93b6cc" stroke="#93b6cc" stroke-width="1.51"/><path d="M1640,241L1620,422L1786,345Z" fill="#74abb7" stroke="#74abb7" stroke-width="1.51"/><path d="M1668,70L1640,241L1778,194Z" fill="#83b0bd" stroke="#83b0bd" stroke-width="1.51"/><path d="M1593,671L1759,786L1781,702Z" fill="#3e97c3" stroke="#3e97c3" stroke-width="1.51"/><path d="M1512,1239L1361,1323L1594,1243Z" fill="#2473ac" stroke="#2473ac" stroke-width="1.51"/><path d="M1620,422L1618,561L1728,560Z" fill="#5ca6be" stroke="#5ca6be" stroke-width="1.51"/><path d="M1618,561L1593,671L1728,560Z" fill="#52a2c1" stroke="#52a2c1" stroke-width="1.51"/><path d="M1671,1164L1594,1243L1750,1310Z" fill="#186ba9" stroke="#186ba9" stroke-width="1.51"/><path d="M1593,671L1690,895L1759,786Z" fill="#3794c3" stroke="#3794c3" stroke-width="1.51"/><path d="M1643,967L1533,1037L1671,1164Z" fill="#237fb8" stroke="#237fb8" stroke-width="1.51"/><path d="M1521,184L1640,241L1668,70Z" fill="#85b5c0" stroke="#85b5c0" stroke-width="1.51"/><path d="M1629,-223L1533,-188L1674,-48Z" fill="#96bcd0" stroke="#96bcd0" stroke-width="1.51"/><path d="M1472,894L1643,967L1690,895Z" fill="#2d8cbf" stroke="#2d8cbf" stroke-width="1.51"/><path d="M1593,671L1472,894L1690,895Z" fill="#3797c4" stroke="#3797c4" stroke-width="1.51"/><path d="M1459,374L1620,422L1640,241Z" fill="#75b2ba" stroke="#75b2ba" stroke-width="1.51"/><path d="M1497,144L1521,184L1668,70Z" fill="#89bac2" stroke="#89bac2" stroke-width="1.51"/><path d="M1533,1037L1503,1155L1671,1164Z" fill="#207db7" stroke="#207db7" stroke-width="1.51"/><path d="M1533,-188L1488,-67L1674,-48Z" fill="#94bece" stroke="#94bece" stroke-width="1.51"/><path d="M1488,-67L1668,70L1674,-48Z" fill="#8fbac8" stroke="#8fbac8" stroke-width="1.51"/><path d="M1488,-67L1497,144L1668,70Z" fill="#8ebcc7" stroke="#8ebcc7" stroke-width="1.51"/><path d="M1503,1155L1594,1243L1671,1164Z" fill="#1d75b1" stroke="#1d75b1" stroke-width="1.51"/><path d="M1455,661L1472,894L1593,671Z" fill="#41a3cb" stroke="#41a3cb" stroke-width="1.51"/><path d="M1436,517L1618,561L1620,422Z" fill="#60adc0" stroke="#60adc0" stroke-width="1.51"/><path d="M1521,184L1459,374L1640,241Z" fill="#7eb7bd" stroke="#7eb7bd" stroke-width="1.51"/><path d="M1472,894L1533,1037L1643,967Z" fill="#2c8bbe" stroke="#2c8bbe" stroke-width="1.51"/><path d="M284,-231L400,-224L536,-230Z" fill="#dcf2d6" stroke="#dcf2d6" stroke-width="1.51"/><path d="M1455,661L1593,671L1618,561Z" fill="#50a7c5" stroke="#50a7c5" stroke-width="1.51"/><path d="M1459,374L1436,517L1620,422Z" fill="#6cb3c0" stroke="#6cb3c0" stroke-width="1.51"/><path d="M1503,1155L1512,1239L1594,1243Z" fill="#2076b0" stroke="#2076b0" stroke-width="1.51"/><path d="M1436,517L1455,661L1618,561Z" fill="#58adc5" stroke="#58adc5" stroke-width="1.51"/><path d="M1194,1266L999,1289L1361,1323Z" fill="#3c82af" stroke="#3c82af" stroke-width="1.51"/><path d="M1455,661L1358,803L1472,894Z" fill="#42a4cb" stroke="#42a4cb" stroke-width="1.51"/><path d="M1488,-67L1279,142L1497,144Z" fill="#92c5ca" stroke="#92c5ca" stroke-width="1.51"/><path d="M1366,269L1459,374L1521,184Z" fill="#80bdc0" stroke="#80bdc0" stroke-width="1.51"/><path d="M1383,-171L1488,-67L1533,-188Z" fill="#9bc6d3" stroke="#9bc6d3" stroke-width="1.51"/><path d="M1472,894L1328,945L1533,1037Z" fill="#3293c1" stroke="#3293c1" stroke-width="1.51"/><path d="M1328,945L1330,1101L1533,1037Z" fill="#3290c0" stroke="#3290c0" stroke-width="1.51"/><path d="M1330,1101L1503,1155L1533,1037Z" fill="#2b85bb" stroke="#2b85bb" stroke-width="1.51"/><path d="M1319,-101L1279,142L1488,-67Z" fill="#98cad0" stroke="#98cad0" stroke-width="1.51"/><path d="M1497,144L1366,269L1521,184Z" fill="#88bfc3" stroke="#88bfc3" stroke-width="1.51"/><path d="M1330,1101L1361,1323L1503,1155Z" fill="#2b80b7" stroke="#2b80b7" stroke-width="1.51"/><path d="M1503,1155L1361,1323L1512,1239Z" fill="#2678b0" stroke="#2678b0" stroke-width="1.51"/><path d="M1436,517L1357,548L1455,661Z" fill="#5db3c8" stroke="#5db3c8" stroke-width="1.51"/><path d="M1279,142L1366,269L1497,144Z" fill="#8cc4c7" stroke="#8cc4c7" stroke-width="1.51"/><path d="M1357,548L1360,648L1455,661Z" fill="#58b2ca" stroke="#58b2ca" stroke-width="1.51"/><path d="M1383,-171L1319,-101L1488,-67Z" fill="#9dcad4" stroke="#9dcad4" stroke-width="1.51"/><path d="M1360,648L1358,803L1455,661Z" fill="#4dadcd" stroke="#4dadcd" stroke-width="1.51"/><path d="M1301,436L1436,517L1459,374Z" fill="#6fbac3" stroke="#6fbac3" stroke-width="1.51"/><path d="M1358,803L1328,945L1472,894Z" fill="#3d9dc7" stroke="#3d9dc7" stroke-width="1.51"/><path d="M1366,269L1301,436L1459,374Z" fill="#7bbfc2" stroke="#7bbfc2" stroke-width="1.51"/><path d="M1301,436L1357,548L1436,517Z" fill="#69bac7" stroke="#69bac7" stroke-width="1.51"/><path d="M1148,-22L1279,142L1319,-101Z" fill="#9dd2d2" stroke="#9dd2d2" stroke-width="1.51"/><path d="M1174,651L1358,803L1360,648Z" fill="#52b3d0" stroke="#52b3d0" stroke-width="1.51"/><path d="M1330,1101L1194,1266L1361,1323Z" fill="#3183b7" stroke="#3183b7" stroke-width="1.51"/><path d="M1279,142L1234,209L1366,269Z" fill="#8ecac9" stroke="#8ecac9" stroke-width="1.51"/><path d="M1237,-196L1319,-101L1383,-171Z" fill="#a3d0d9" stroke="#a3d0d9" stroke-width="1.51"/><path d="M875,-218L998,-156L1237,-196Z" fill="#b2dfd7" stroke="#b2dfd7" stroke-width="1.51"/><path d="M1179,1131L1194,1266L1330,1101Z" fill="#388dbe" stroke="#388dbe" stroke-width="1.51"/><path d="M1328,945L1177,983L1330,1101Z" fill="#3a99c6" stroke="#3a99c6" stroke-width="1.51"/><path d="M1173,848L1328,945L1358,803Z" fill="#43a6cc" stroke="#43a6cc" stroke-width="1.51"/><path d="M1174,651L1173,848L1358,803Z" fill="#4fb2d2" stroke="#4fb2d2" stroke-width="1.51"/><path d="M1357,548L1223,579L1360,648Z" fill="#60b9cc" stroke="#60b9cc" stroke-width="1.51"/><path d="M1234,209L1301,436L1366,269Z" fill="#84c6c4" stroke="#84c6c4" stroke-width="1.51"/><path d="M1301,436L1223,579L1357,548Z" fill="#69beca" stroke="#69beca" stroke-width="1.51"/><path d="M1223,579L1174,651L1360,648Z" fill="#5fbacf" stroke="#5fbacf" stroke-width="1.51"/><path d="M1234,209L1167,432L1301,436Z" fill="#81c8c5" stroke="#81c8c5" stroke-width="1.51"/><path d="M1173,848L1177,983L1328,945Z" fill="#44a3c9" stroke="#44a3c9" stroke-width="1.51"/><path d="M1177,983L1179,1131L1330,1101Z" fill="#3d96c3" stroke="#3d96c3" stroke-width="1.51"/><path d="M1148,-22L1149,140L1279,142Z" fill="#9cd3cd" stroke="#9cd3cd" stroke-width="1.51"/><path d="M1167,432L1223,579L1301,436Z" fill="#72c3c9" stroke="#72c3c9" stroke-width="1.51"/><path d="M1237,-196L1148,-22L1319,-101Z" fill="#a3d4d8" stroke="#a3d4d8" stroke-width="1.51"/><path d="M1028,286L1167,432L1234,209Z" fill="#8bcec2" stroke="#8bcec2" stroke-width="1.51"/><path d="M1149,140L1234,209L1279,142Z" fill="#95cfca" stroke="#95cfca" stroke-width="1.51"/><path d="M1070,716L1173,848L1174,651Z" fill="#5ab8d0" stroke="#5ab8d0" stroke-width="1.51"/><path d="M1167,432L1059,543L1223,579Z" fill="#72c5c8" stroke="#72c5c8" stroke-width="1.51"/><path d="M1149,140L1028,286L1234,209Z" fill="#95d1c6" stroke="#95d1c6" stroke-width="1.51"/><path d="M1078,-79L1148,-22L1237,-196Z" fill="#a7d8d6" stroke="#a7d8d6" stroke-width="1.51"/><path d="M998,-156L1078,-79L1237,-196Z" fill="#acdbd7" stroke="#acdbd7" stroke-width="1.51"/><path d="M1059,543L1174,651L1223,579Z" fill="#6ac1cb" stroke="#6ac1cb" stroke-width="1.51"/><path d="M1028,286L1011,365L1167,432Z" fill="#8acfc1" stroke="#8acfc1" stroke-width="1.51"/><path d="M1173,848L1012,944L1177,983Z" fill="#4fa7c7" stroke="#4fa7c7" stroke-width="1.51"/><path d="M1177,983L1030,1125L1179,1131Z" fill="#4799c0" stroke="#4799c0" stroke-width="1.51"/><path d="M1179,1131L1030,1125L1194,1266Z" fill="#4390bb" stroke="#4390bb" stroke-width="1.51"/><path d="M1030,1125L999,1289L1194,1266Z" fill="#478db4" stroke="#478db4" stroke-width="1.51"/><path d="M1148,-22L982,54L1149,140Z" fill="#a3d7cc" stroke="#a3d7cc" stroke-width="1.51"/><path d="M999,876L1012,944L1173,848Z" fill="#56adc7" stroke="#56adc7" stroke-width="1.51"/><path d="M1012,944L1030,1125L1177,983Z" fill="#4fa0c1" stroke="#4fa0c1" stroke-width="1.51"/><path d="M1070,716L999,876L1173,848Z" fill="#59b4cb" stroke="#59b4cb" stroke-width="1.51"/><path d="M1059,543L1070,716L1174,651Z" fill="#69c0cb" stroke="#69c0cb" stroke-width="1.51"/><path d="M1011,365L1059,543L1167,432Z" fill="#80cbc4" stroke="#80cbc4" stroke-width="1.51"/><path d="M1078,-79L982,54L1148,-22Z" fill="#a7dacf" stroke="#a7dacf" stroke-width="1.51"/><path d="M982,54L1028,286L1149,140Z" fill="#9ed6c6" stroke="#9ed6c6" stroke-width="1.51"/><path d="M936,701L907,822L999,876Z" fill="#65bbc9" stroke="#65bbc9" stroke-width="1.51"/><path d="M982,54L853,219L1028,286Z" fill="#a1d9c2" stroke="#a1d9c2" stroke-width="1.51"/><path d="M1012,944L933,1008L1030,1125Z" fill="#55a3bf" stroke="#55a3bf" stroke-width="1.51"/><path d="M1011,365L904,405L1059,543Z" fill="#86cec2" stroke="#86cec2" stroke-width="1.51"/><path d="M1059,543L936,701L1070,716Z" fill="#6cc2ca" stroke="#6cc2ca" stroke-width="1.51"/><path d="M936,701L999,876L1070,716Z" fill="#63bccc" stroke="#63bccc" stroke-width="1.51"/><path d="M998,-156L982,54L1078,-79Z" fill="#acdcd0" stroke="#acdcd0" stroke-width="1.51"/><path d="M850,-46L982,54L998,-156Z" fill="#b0e0cd" stroke="#b0e0cd" stroke-width="1.51"/><path d="M843,524L936,701L1059,543Z" fill="#78c9c6" stroke="#78c9c6" stroke-width="1.51"/><path d="M904,405L843,524L1059,543Z" fill="#83cec2" stroke="#83cec2" stroke-width="1.51"/><path d="M933,1008L889,1116L1030,1125Z" fill="#57a0bc" stroke="#57a0bc" stroke-width="1.51"/><path d="M913,1288L999,1289L1030,1125Z" fill="#4f8fb1" stroke="#4f8fb1" stroke-width="1.51"/><path d="M889,1116L913,1288L1030,1125Z" fill="#5497b6" stroke="#5497b6" stroke-width="1.51"/><path d="M684,1243L549,1320L913,1288Z" fill="#6691a6" stroke="#6691a6" stroke-width="1.51"/><path d="M904,405L1011,365L1028,286Z" fill="#8fd2be" stroke="#8fd2be" stroke-width="1.51"/><path d="M853,219L904,405L1028,286Z" fill="#98d6bd" stroke="#98d6bd" stroke-width="1.51"/><path d="M999,876L933,1008L1012,944Z" fill="#59abc2" stroke="#59abc2" stroke-width="1.51"/><path d="M833,43L853,219L982,54Z" fill="#acdec4" stroke="#acdec4" stroke-width="1.51"/><path d="M875,-218L850,-46L998,-156Z" fill="#b7e3d1" stroke="#b7e3d1" stroke-width="1.51"/><path d="M907,822L933,1008L999,876Z" fill="#5fb0c3" stroke="#5fb0c3" stroke-width="1.51"/><path d="M850,-46L833,43L982,54Z" fill="#b0e0c9" stroke="#b0e0c9" stroke-width="1.51"/><path d="M853,219L748,254L904,405Z" fill="#9fd9bb" stroke="#9fd9bb" stroke-width="1.51"/><path d="M761,829L740,964L907,822Z" fill="#6fb7c2" stroke="#6fb7c2" stroke-width="1.51"/><path d="M889,1116L684,1243L913,1288Z" fill="#5e96b0" stroke="#5e96b0" stroke-width="1.51"/><path d="M907,822L740,964L933,1008Z" fill="#66b0c0" stroke="#66b0c0" stroke-width="1.51"/><path d="M761,829L907,822L936,701Z" fill="#6ebec8" stroke="#6ebec8" stroke-width="1.51"/><path d="M689,688L761,829L936,701Z" fill="#78c4c8" stroke="#78c4c8" stroke-width="1.51"/><path d="M727,585L689,688L936,701Z" fill="#80cac4" stroke="#80cac4" stroke-width="1.51"/><path d="M843,524L727,585L936,701Z" fill="#80cbc4" stroke="#80cbc4" stroke-width="1.51"/><path d="M740,964L889,1116L933,1008Z" fill="#62a7bc" stroke="#62a7bc" stroke-width="1.51"/><path d="M744,-104L850,-46L875,-218Z" fill="#bce5ce" stroke="#bce5ce" stroke-width="1.51"/><path d="M748,254L699,366L904,405Z" fill="#9fd9b9" stroke="#9fd9b9" stroke-width="1.51"/><path d="M740,964L697,1096L889,1116Z" fill="#69a6b9" stroke="#69a6b9" stroke-width="1.51"/><path d="M697,1096L684,1243L889,1116Z" fill="#679eb5" stroke="#679eb5" stroke-width="1.51"/><path d="M699,366L843,524L904,405Z" fill="#93d4bd" stroke="#93d4bd" stroke-width="1.51"/><path d="M833,43L728,65L853,219Z" fill="#b2e1c2" stroke="#b2e1c2" stroke-width="1.51"/><path d="M728,65L748,254L853,219Z" fill="#aedfbe" stroke="#aedfbe" stroke-width="1.51"/><path d="M737,-255L744,-104L875,-218Z" fill="#c3e7d1" stroke="#c3e7d1" stroke-width="1.51"/><path d="M699,366L727,585L843,524Z" fill="#91d3be" stroke="#91d3be" stroke-width="1.51"/><path d="M728,65L833,43L850,-46Z" fill="#b6e2c6" stroke="#b6e2c6" stroke-width="1.51"/><path d="M744,-104L728,65L850,-46Z" fill="#bae4c8" stroke="#bae4c8" stroke-width="1.51"/><path d="M585,416L597,525L699,366Z" fill="#a0daba" stroke="#a0daba" stroke-width="1.51"/><path d="M699,366L597,525L727,585Z" fill="#97d6bc" stroke="#97d6bc" stroke-width="1.51"/><path d="M562,-93L592,78L728,65Z" fill="#c2e7c4" stroke="#c2e7c4" stroke-width="1.51"/><path d="M536,-230L562,-93L737,-255Z" fill="#ceeccf" stroke="#ceeccf" stroke-width="1.51"/><path d="M540,794L579,1004L740,964Z" fill="#7bb7bd" stroke="#7bb7bd" stroke-width="1.51"/><path d="M737,-255L562,-93L744,-104Z" fill="#c7e9cc" stroke="#c7e9cc" stroke-width="1.51"/><path d="M562,-93L728,65L744,-104Z" fill="#c2e7c6" stroke="#c2e7c6" stroke-width="1.51"/><path d="M728,65L592,78L748,254Z" fill="#b8e3be" stroke="#b8e3be" stroke-width="1.51"/><path d="M592,78L608,277L748,254Z" fill="#b4e2ba" stroke="#b4e2ba" stroke-width="1.51"/><path d="M540,794L740,964L761,829Z" fill="#7abcbf" stroke="#7abcbf" stroke-width="1.51"/><path d="M689,688L540,794L761,829Z" fill="#81c5c4" stroke="#81c5c4" stroke-width="1.51"/><path d="M579,1004L697,1096L740,964Z" fill="#73adb8" stroke="#73adb8" stroke-width="1.51"/><path d="M608,277L699,366L748,254Z" fill="#aadeb7" stroke="#aadeb7" stroke-width="1.51"/><path d="M615,650L689,688L727,585Z" fill="#8acec1" stroke="#8acec1" stroke-width="1.51"/><path d="M597,525L615,650L727,585Z" fill="#91d2bf" stroke="#91d2bf" stroke-width="1.51"/><path d="M615,650L540,794L689,688Z" fill="#89cbc4" stroke="#89cbc4" stroke-width="1.51"/><path d="M533,1173L684,1243L697,1096Z" fill="#709fb1" stroke="#709fb1" stroke-width="1.51"/><path d="M608,277L585,416L699,366Z" fill="#a8ddb7" stroke="#a8ddb7" stroke-width="1.51"/><path d="M579,1004L533,1173L697,1096Z" fill="#75a8b6" stroke="#75a8b6" stroke-width="1.51"/><path d="M540,794L469,886L579,1004Z" fill="#83bcc1" stroke="#83bcc1" stroke-width="1.51"/><path d="M533,1173L549,1320L684,1243Z" fill="#7198ab" stroke="#7198ab" stroke-width="1.51"/><path d="M470,1003L533,1173L579,1004Z" fill="#7bacba" stroke="#7bacba" stroke-width="1.51"/><path d="M562,-93L440,60L592,78Z" fill="#c8e9c6" stroke="#c8e9c6" stroke-width="1.51"/><path d="M440,60L436,279L592,78Z" fill="#c4e8c1" stroke="#c4e8c1" stroke-width="1.51"/><path d="M592,78L436,279L608,277Z" fill="#bae4bc" stroke="#bae4bc" stroke-width="1.51"/><path d="M436,279L585,416L608,277Z" fill="#b0e0b8" stroke="#b0e0b8" stroke-width="1.51"/><path d="M456,717L540,794L615,650Z" fill="#8dccc7" stroke="#8dccc7" stroke-width="1.51"/><path d="M597,525L470,532L615,650Z" fill="#97d5c0" stroke="#97d5c0" stroke-width="1.51"/><path d="M470,532L456,717L615,650Z" fill="#95d2c4" stroke="#95d2c4" stroke-width="1.51"/><path d="M585,416L470,532L597,525Z" fill="#9fd9be" stroke="#9fd9be" stroke-width="1.51"/><path d="M295,1304L174,1326L385,1319Z" fill="#7e96ac" stroke="#7e96ac" stroke-width="1.51"/><path d="M403,-30L440,60L562,-93Z" fill="#cdecca" stroke="#cdecca" stroke-width="1.51"/><path d="M469,886L470,1003L579,1004Z" fill="#80b6be" stroke="#80b6be" stroke-width="1.51"/><path d="M436,279L393,380L585,416Z" fill="#b1e1bb" stroke="#b1e1bb" stroke-width="1.51"/><path d="M393,380L470,532L585,416Z" fill="#a8dcbe" stroke="#a8dcbe" stroke-width="1.51"/><path d="M470,1003L392,1162L533,1173Z" fill="#7da9b9" stroke="#7da9b9" stroke-width="1.51"/><path d="M533,1173L385,1319L549,1320Z" fill="#7698aa" stroke="#7698aa" stroke-width="1.51"/><path d="M536,-230L400,-224L562,-93Z" fill="#d4efd2" stroke="#d4efd2" stroke-width="1.51"/><path d="M400,-224L403,-30L562,-93Z" fill="#d3eecf" stroke="#d3eecf" stroke-width="1.51"/><path d="M392,1162L385,1319L533,1173Z" fill="#7b9eb1" stroke="#7b9eb1" stroke-width="1.51"/><path d="M456,717L469,886L540,794Z" fill="#8bc6c7" stroke="#8bc6c7" stroke-width="1.51"/><path d="M400,-224L308,-48L403,-30Z" fill="#d7f0d0" stroke="#d7f0d0" stroke-width="1.51"/><path d="M252,227L436,279L440,60Z" fill="#c6e9c2" stroke="#c6e9c2" stroke-width="1.51"/><path d="M265,82L252,227L440,60Z" fill="#ceecc6" stroke="#ceecc6" stroke-width="1.51"/><path d="M268,699L261,838L456,717Z" fill="#97cecd" stroke="#97cecd" stroke-width="1.51"/><path d="M456,717L261,838L469,886Z" fill="#90c7c8" stroke="#90c7c8" stroke-width="1.51"/><path d="M469,886L327,1007L470,1003Z" fill="#86b8c1" stroke="#86b8c1" stroke-width="1.51"/><path d="M327,1007L392,1162L470,1003Z" fill="#84afbd" stroke="#84afbd" stroke-width="1.51"/><path d="M393,380L261,504L470,532Z" fill="#acdec2" stroke="#acdec2" stroke-width="1.51"/><path d="M268,699L456,717L470,532Z" fill="#9bd4c8" stroke="#9bd4c8" stroke-width="1.51"/><path d="M261,504L268,699L470,532Z" fill="#a4d9c7" stroke="#a4d9c7" stroke-width="1.51"/><path d="M261,838L327,1007L469,886Z" fill="#8dbec5" stroke="#8dbec5" stroke-width="1.51"/><path d="M403,-30L265,82L440,60Z" fill="#d0edc9" stroke="#d0edc9" stroke-width="1.51"/><path d="M295,1304L385,1319L392,1162Z" fill="#7e9caf" stroke="#7e9caf" stroke-width="1.51"/><path d="M284,-231L308,-48L400,-224Z" fill="#dcf2d5" stroke="#dcf2d5" stroke-width="1.51"/><path d="M271,369L393,380L436,279Z" fill="#b9e4bd" stroke="#b9e4bd" stroke-width="1.51"/><path d="M252,227L271,369L436,279Z" fill="#bfe6c0" stroke="#bfe6c0" stroke-width="1.51"/><path d="M327,1007L259,1088L392,1162Z" fill="#86aebe" stroke="#86aebe" stroke-width="1.51"/><path d="M271,369L261,504L393,380Z" fill="#b4e1c2" stroke="#b4e1c2" stroke-width="1.51"/><path d="M308,-48L265,82L403,-30Z" fill="#d3eecd" stroke="#d3eecd" stroke-width="1.51"/><path d="M259,1088L295,1304L392,1162Z" fill="#82a4b8" stroke="#82a4b8" stroke-width="1.51"/><path d="M261,504L178,674L268,699Z" fill="#a4d7cc" stroke="#a4d7cc" stroke-width="1.51"/><path d="M167,-247L164,-11L284,-231Z" fill="#e0f3da" stroke="#e0f3da" stroke-width="1.51"/><path d="M259,1088L173,1098L295,1304Z" fill="#85a7be" stroke="#85a7be" stroke-width="1.51"/><path d="M173,1098L174,1326L295,1304Z" fill="#839fb6" stroke="#839fb6" stroke-width="1.51"/><path d="M284,-231L164,-11L308,-48Z" fill="#dbf1d5" stroke="#dbf1d5" stroke-width="1.51"/><path d="M261,838L111,977L327,1007Z" fill="#8ebdc7" stroke="#8ebdc7" stroke-width="1.51"/><path d="M111,977L259,1088L327,1007Z" fill="#8cb5c4" stroke="#8cb5c4" stroke-width="1.51"/><path d="M163,413L261,504L271,369Z" fill="#b6e2c5" stroke="#b6e2c5" stroke-width="1.51"/><path d="M164,-11L265,82L308,-48Z" fill="#d6efcf" stroke="#d6efcf" stroke-width="1.51"/><path d="M111,977L173,1098L259,1088Z" fill="#8cb3c4" stroke="#8cb3c4" stroke-width="1.51"/><path d="M107,863L111,977L261,838Z" fill="#94c2cd" stroke="#94c2cd" stroke-width="1.51"/><path d="M167,98L252,227L265,82Z" fill="#d0edc9" stroke="#d0edc9" stroke-width="1.51"/><path d="M178,674L261,838L268,699Z" fill="#9bd1d1" stroke="#9bd1d1" stroke-width="1.51"/><path d="M252,227L159,266L271,369Z" fill="#c3e8c4" stroke="#c3e8c4" stroke-width="1.51"/><path d="M178,674L107,863L261,838Z" fill="#99ccd1" stroke="#99ccd1" stroke-width="1.51"/><path d="M111,486L178,674L261,504Z" fill="#abddcc" stroke="#abddcc" stroke-width="1.51"/><path d="M164,-11L167,98L265,82Z" fill="#d5efcf" stroke="#d5efcf" stroke-width="1.51"/><path d="M159,266L163,413L271,369Z" fill="#bee6c3" stroke="#bee6c3" stroke-width="1.51"/><path d="M167,98L159,266L252,227Z" fill="#ccebc8" stroke="#ccebc8" stroke-width="1.51"/><path d="M163,413L111,486L261,504Z" fill="#b3e1c8" stroke="#b3e1c8" stroke-width="1.51"/><path d="M4,224L-64,365L159,266Z" fill="#caeacb" stroke="#caeacb" stroke-width="1.51"/><path d="M159,266L-64,365L163,413Z" fill="#c2e7c7" stroke="#c2e7c7" stroke-width="1.51"/><path d="M32,-248L0,-36L164,-11Z" fill="#e1f4dc" stroke="#e1f4dc" stroke-width="1.51"/><path d="M32,-248L164,-11L167,-247Z" fill="#e3f4dd" stroke="#e3f4dd" stroke-width="1.51"/><path d="M4,224L159,266L167,98Z" fill="#cfeccb" stroke="#cfeccb" stroke-width="1.51"/><path d="M35,90L4,224L167,98Z" fill="#d5efcf" stroke="#d5efcf" stroke-width="1.51"/><path d="M164,-11L35,90L167,98Z" fill="#d8f0d1" stroke="#d8f0d1" stroke-width="1.51"/><path d="M-68,1245L-178,1330L174,1326Z" fill="#889cb8" stroke="#889cb8" stroke-width="1.51"/><path d="M173,1098L-14,1189L174,1326Z" fill="#88a5bd" stroke="#88a5bd" stroke-width="1.51"/><path d="M111,486L-2,704L178,674Z" fill="#a9dad1" stroke="#a9dad1" stroke-width="1.51"/><path d="M-2,704L107,863L178,674Z" fill="#9fd2d6" stroke="#9fd2d6" stroke-width="1.51"/><path d="M111,977L-11,1021L173,1098Z" fill="#8fb6c9" stroke="#8fb6c9" stroke-width="1.51"/><path d="M-14,1189L-68,1245L174,1326Z" fill="#88a0bb" stroke="#88a0bb" stroke-width="1.51"/><path d="M-11,1021L-14,1189L173,1098Z" fill="#8eb0c7" stroke="#8eb0c7" stroke-width="1.51"/><path d="M-64,538L-2,704L111,486Z" fill="#afded3" stroke="#afded3" stroke-width="1.51"/><path d="M-64,365L111,486L163,413Z" fill="#bbe5ca" stroke="#bbe5ca" stroke-width="1.51"/><path d="M0,-36L35,90L164,-11Z" fill="#dcf1d6" stroke="#dcf1d6" stroke-width="1.51"/><path d="M-2,704L-10,849L107,863Z" fill="#9ecdd5" stroke="#9ecdd5" stroke-width="1.51"/><path d="M-64,365L-64,538L111,486Z" fill="#bae4cf" stroke="#bae4cf" stroke-width="1.51"/><path d="M107,863L-10,849L111,977Z" fill="#96c3d0" stroke="#96c3d0" stroke-width="1.51"/><path d="M-10,849L-11,1021L111,977Z" fill="#95bfce" stroke="#95bfce" stroke-width="1.51"/><path d="M-113,817L-10,849L-2,704Z" fill="#a2d0d9" stroke="#a2d0d9" stroke-width="1.51"/><path d="M-111,245L-64,365L4,224Z" fill="#ceecce" stroke="#ceecce" stroke-width="1.51"/><path d="M-111,-189L0,-36L32,-248Z" fill="#e8f6e2" stroke="#e8f6e2" stroke-width="1.51"/><path d="M0,-36L-163,50L35,90Z" fill="#dff3d8" stroke="#dff3d8" stroke-width="1.51"/><path d="M-111,245L4,224L35,90Z" fill="#d4efd0" stroke="#d4efd0" stroke-width="1.51"/><path d="M-163,50L-111,245L35,90Z" fill="#dcf1d5" stroke="#dcf1d5" stroke-width="1.51"/><path d="M-177,956L-11,1021L-10,849Z" fill="#99c1d2" stroke="#99c1d2" stroke-width="1.51"/><path d="M-64,365L-116,518L-64,538Z" fill="#bce4d2" stroke="#bce4d2" stroke-width="1.51"/><path d="M-193,1166L-14,1189L-11,1021Z" fill="#91b0ca" stroke="#91b0ca" stroke-width="1.51"/><path d="M-113,817L-177,956L-10,849Z" fill="#9ec8d6" stroke="#9ec8d6" stroke-width="1.51"/><path d="M-64,538L-152,738L-2,704Z" fill="#acdad9" stroke="#acdad9" stroke-width="1.51"/><path d="M-152,738L-113,817L-2,704Z" fill="#a5d4dc" stroke="#a5d4dc" stroke-width="1.51"/><path d="M-111,-189L-210,-68L0,-36Z" fill="#e8f6e2" stroke="#e8f6e2" stroke-width="1.51"/><path d="M-210,-68L-163,50L0,-36Z" fill="#e4f5de" stroke="#e4f5de" stroke-width="1.51"/><path d="M-154,398L-116,518L-64,365Z" fill="#c2e7d1" stroke="#c2e7d1" stroke-width="1.51"/><path d="M-193,1166L-68,1245L-14,1189Z" fill="#8fa8c5" stroke="#8fa8c5" stroke-width="1.51"/><path d="M-177,956L-193,1166L-11,1021Z" fill="#96b8d0" stroke="#96b8d0" stroke-width="1.51"/><path d="M-111,245L-154,398L-64,365Z" fill="#cbebce" stroke="#cbebce" stroke-width="1.51"/><path d="M-116,518L-152,738L-64,538Z" fill="#b2ded7" stroke="#b2ded7" stroke-width="1.51"/><path d="M-193,1166L-178,1330L-68,1245Z" fill="#8fa4c1" stroke="#8fa4c1" stroke-width="1.51"/><path d="M-163,50L-154,398L-111,245Z" fill="#d5efd3" stroke="#d5efd3" stroke-width="1.51"/><path d="M-154,398L-152,738L-116,518Z" fill="#b7e2d7" stroke="#b7e2d7" stroke-width="1.51"/><path d="M-152,738L-177,956L-113,817Z" fill="#a3cdda" stroke="#a3cdda" stroke-width="1.51"/><path d="M-163,50L-210,-68L-154,398Z" fill="#dff3d8" stroke="#dff3d8" stroke-width="1.51"/><path d="M-210,-68L-177,956L-154,398Z" fill="#c4e8d4" stroke="#c4e8d4" stroke-width="1.51"/><path d="M-154,398L-177,956L-152,738Z" fill="#add9dd" stroke="#add9dd" stroke-width="1.51"/><path d="M-210,-68L-193,1166L-177,956Z" fill="#afdade" stroke="#afdade" stroke-width="1.51"/></svg>